<svg width="44" height="44" viewBox="0 0 44 44" fill="none" xmlns="http://www.w3.org/2000/svg">
<g clip-path="url(#clip0_748_148)">
<path d="M27.4718 37.7082V34.5028C27.4719 34.411 27.4538 34.32 27.4186 34.2352C27.3834 34.1504 27.3318 34.0733 27.2668 34.0085C27.2021 33.9434 27.1252 33.8919 27.0404 33.8568C26.9557 33.8216 26.8648 33.8037 26.7731 33.8039H17.2267C17.1349 33.8038 17.044 33.8219 16.9592 33.857C16.8743 33.8921 16.7973 33.9436 16.7324 34.0085C16.6675 34.0734 16.616 34.1505 16.5809 34.2353C16.5459 34.3201 16.5279 34.411 16.5279 34.5028V37.7082L12.7822 39.7776C12.7441 39.7991 12.7125 39.8304 12.6905 39.8682C12.6681 39.9058 12.6563 39.9487 12.6562 39.9925V40.4466C12.6562 40.5095 12.6799 40.5724 12.7281 40.6199C12.7756 40.6683 12.8381 40.6919 12.9012 40.6919H31.0985C31.1615 40.6919 31.2239 40.6683 31.2715 40.6199C31.3199 40.5724 31.3434 40.5095 31.3434 40.4466V39.9925C31.3434 39.95 31.3324 39.9065 31.3091 39.8682C31.287 39.8302 31.2551 39.7989 31.2167 39.7776L27.4718 37.7082ZM43.5136 3.79369C43.3599 3.63933 43.1772 3.51692 42.976 3.43351C42.7748 3.3501 42.559 3.30735 42.3412 3.30771H1.65902C1.23442 3.30771 0.810042 3.46941 0.486422 3.79369C0.331962 3.94732 0.209455 4.13002 0.125969 4.33124C0.0424823 4.53246 -0.000330036 4.74822 1.91566e-06 4.96607V31.3005C1.91566e-06 31.7251 0.161482 32.1497 0.486422 32.4738C0.640157 32.6281 0.822914 32.7505 1.02416 32.8339C1.22541 32.9173 1.44117 32.9601 1.65902 32.9598H42.3412C42.559 32.96 42.7747 32.9172 42.9759 32.8338C43.1771 32.7504 43.3598 32.6281 43.5136 32.4738C43.668 32.32 43.7905 32.1371 43.874 31.9357C43.9575 31.7344 44.0003 31.5185 44 31.3005V4.96607C44.0003 4.74823 43.9575 4.53248 43.874 4.33126C43.7905 4.13005 43.668 3.94735 43.5136 3.79369ZM22 32.2568C21.595 32.2568 21.2665 31.9288 21.2665 31.5238C21.2665 31.1188 21.595 30.7899 22 30.7899C22.1945 30.7899 22.3811 30.8672 22.5186 31.0047C22.6562 31.1423 22.7335 31.3288 22.7335 31.5234C22.7335 31.7179 22.6562 31.9045 22.5186 32.042C22.3811 32.1796 22.1945 32.2568 22 32.2568ZM41.1308 30.0903H2.86946V6.17695H41.1308V30.0903Z" fill="black"/>
<path d="M9.02176 27.8395C8.97641 27.8394 8.9315 27.8483 8.88959 27.8656C8.84769 27.883 8.80961 27.9084 8.77755 27.9404C8.74548 27.9725 8.72006 28.0106 8.70273 28.0525C8.68541 28.0944 8.67652 28.1393 8.67657 28.1846V28.4464H12.3719V28.1846C12.3717 28.0932 12.3353 28.0057 12.2707 27.941C12.2061 27.8763 12.1186 27.8398 12.0272 27.8395H9.02176ZM13.5329 23.5726C13.4876 23.5725 13.4427 23.5815 13.4009 23.5988C13.3591 23.6162 13.3211 23.6416 13.2891 23.6737C13.2571 23.7057 13.2318 23.7438 13.2146 23.7857C13.1974 23.8276 13.1886 23.8725 13.1888 23.9177V28.4464H16.883V23.9177C16.8831 23.8724 16.8743 23.8275 16.857 23.7856C16.8397 23.7437 16.8143 23.7056 16.7823 23.6735C16.7502 23.6414 16.7121 23.616 16.6702 23.5987C16.6283 23.5814 16.5834 23.5725 16.5381 23.5726H13.5329ZM18.0448 21.8183C17.9564 21.8183 17.8684 21.8513 17.8006 21.9186C17.7686 21.9508 17.7432 21.9889 17.7259 22.0309C17.7086 22.0729 17.6998 22.1178 17.6999 22.1632V28.4469H21.395V22.1632C21.395 22.0748 21.3613 21.9866 21.294 21.9186C21.262 21.8866 21.224 21.8612 21.1822 21.844C21.1403 21.8268 21.0955 21.8181 21.0503 21.8183H18.0448ZM22.557 22.5443C22.5117 22.5439 22.4668 22.5526 22.425 22.5699C22.3831 22.5871 22.3451 22.6126 22.3133 22.6448C22.281 22.6768 22.2554 22.715 22.238 22.757C22.2206 22.799 22.2117 22.844 22.2119 22.8895V28.4467H25.9072V22.8895C25.9072 22.8004 25.8742 22.7126 25.8053 22.6448C25.7736 22.6127 25.7358 22.5872 25.6941 22.5699C25.6524 22.5527 25.6076 22.5439 25.5625 22.5443H22.557ZM27.0686 19.7245C26.977 19.7245 26.8891 19.7608 26.8242 19.8255C26.7593 19.8901 26.7227 19.9779 26.7225 20.0695V28.4469H30.4192V20.0693C30.4192 19.9811 30.3849 19.8931 30.3169 19.8251C30.285 19.7931 30.247 19.7677 30.2053 19.7504C30.1635 19.7331 30.1188 19.7243 30.0736 19.7243L27.0686 19.7245ZM31.5801 16.205C31.5348 16.2049 31.49 16.2138 31.4481 16.2311C31.4062 16.2483 31.3682 16.2737 31.3362 16.3058C31.3041 16.3378 31.2787 16.3758 31.2614 16.4177C31.2441 16.4596 31.2353 16.5044 31.2354 16.5497V28.4464H34.9303V16.5499C34.9303 16.4619 34.8973 16.3731 34.8291 16.3062C34.7972 16.2741 34.7592 16.2487 34.7174 16.2313C34.6756 16.214 34.6308 16.2051 34.5855 16.2052H31.5801V16.205Z" fill="black"/>
<path d="M37.7051 9.61905C37.7285 9.57934 37.7395 9.5335 37.7366 9.48749C37.7336 9.44147 37.7169 9.39741 37.6886 9.36099C37.6601 9.32478 37.6215 9.29791 37.5776 9.28384C37.5338 9.26977 37.4867 9.26913 37.4424 9.28202L33.7508 10.3638C33.7149 10.3743 33.682 10.3934 33.6551 10.4196C33.6282 10.4457 33.6081 10.478 33.5965 10.5137C33.585 10.5494 33.5823 10.5873 33.5888 10.6243C33.5952 10.6612 33.6106 10.696 33.6336 10.7257L34.0815 11.3001L22.9002 20.022L16.7037 17.3963L6.37009 27.2078C6.30629 27.2692 6.26537 27.3535 6.26251 27.4492C6.26141 27.5442 6.29639 27.6318 6.35799 27.6965L6.83341 28.1961C6.89435 28.2599 6.97949 28.3017 7.07431 28.3041C7.16957 28.3059 7.25713 28.2698 7.32093 28.2082L16.9976 19.0199L23.1092 21.6086L34.9303 12.3875L35.3782 12.9611C35.4012 12.9906 35.4312 13.014 35.4653 13.0293C35.4995 13.0446 35.5369 13.0513 35.5743 13.0488C35.6117 13.0463 35.6479 13.0347 35.6797 13.015C35.7116 12.9953 35.7381 12.9681 35.757 12.9358L37.7051 9.61905Z" fill="black"/>
</g>
<defs>
<clipPath id="clip0_748_148">
<rect width="44" height="44" fill="white"/>
</clipPath>
</defs>
</svg>
