<svg width="39" height="39" viewBox="0 0 39 39" fill="none" xmlns="http://www.w3.org/2000/svg">
<path d="M33.6291 28.6987C33.6264 28.6962 33.6236 28.6937 33.6207 28.6913L23.4164 19.7932L25.1187 17.8324C25.7659 18.0946 26.4759 18.2317 27.1975 18.2318C27.1976 18.2318 27.1976 18.2318 27.1977 18.2318C27.9893 18.2318 28.7707 18.0741 29.5199 17.7631C30.2931 17.4422 30.9902 16.9746 31.5916 16.3731L33.0942 14.8704C34.2192 13.7455 34.8772 12.2791 34.9471 10.7414C34.9814 9.98777 34.8721 9.2587 34.6224 8.57444C34.3619 7.86059 33.9601 7.22891 33.4281 6.69694C32.4448 5.71353 31.1026 5.17194 29.6491 5.17194C28.8573 5.17194 28.0758 5.32964 27.3265 5.64067C26.5532 5.96162 25.8561 6.42934 25.2546 7.03086L23.752 8.53346C22.8226 9.46282 22.2121 10.621 21.9866 11.8829C21.795 12.9543 21.9043 14.0463 22.2928 15.0064L20.105 16.9058L17.1678 14.3445C17.5333 13.3489 17.5941 12.1993 17.3351 11.0583C17.0348 9.73566 16.3412 8.50167 15.3293 7.48977L12.0577 4.21819C11.8292 3.98973 11.4588 3.98973 11.2304 4.21819C11.0019 4.44664 11.0019 4.81705 11.2304 5.0455L14.502 8.31709C16.2028 10.0179 16.7929 12.4602 15.937 14.2564C15.8241 14.4933 15.8829 14.7764 16.0807 14.9489L19.213 17.6803L17.5799 19.098L14.9489 16.0807C14.7764 15.8829 14.4933 15.8241 14.2564 15.937C12.4603 16.7929 10.0179 16.2029 8.31705 14.5021L5.04547 11.2305C4.81702 11.002 4.44661 11.002 4.21816 11.2305C3.9897 11.4589 3.9897 11.8293 4.21815 12.0578L7.48974 15.3294C8.50165 16.3413 9.73564 17.0349 11.0583 17.3351C12.1992 17.5942 13.3489 17.5333 14.3445 17.1678L16.6964 19.865L6.33755 28.8582C6.33517 28.8603 6.33281 28.8624 6.33046 28.8645C5.60997 29.5107 5.19896 30.3903 5.17315 31.3412C5.14735 32.292 5.51 33.1925 6.19438 33.8769L6.24831 33.9308C6.90763 34.5901 7.77524 34.9532 8.69133 34.9532C9.66374 34.9532 10.6002 34.5309 11.2606 33.7946C11.2627 33.7923 11.2648 33.7899 11.2669 33.7875L20.0325 23.6909L28.6913 33.6207C28.6937 33.6235 28.6962 33.6263 28.6987 33.6291C29.4377 34.4444 30.4558 34.9266 31.4921 34.9521C31.5215 34.9528 31.5507 34.9531 31.5799 34.9531C32.4783 34.9531 33.3119 34.6128 33.9355 33.9892L33.9893 33.9354C34.633 33.2917 34.9749 32.424 34.9521 31.4922C34.9267 30.4559 34.4445 29.4377 33.6291 28.6987ZM10.3867 33.0166C9.94176 33.511 9.33983 33.7832 8.69133 33.7832C8.08776 33.7832 7.51394 33.5418 7.07556 33.1034L7.02162 33.0495C6.56683 32.5947 6.32572 31.9993 6.34272 31.3729C6.35968 30.748 6.63153 30.1677 7.10828 29.7385L17.9033 20.3667C17.9046 20.3656 17.9059 20.3645 17.9072 20.3634C17.9082 20.3626 17.9091 20.3617 17.9101 20.3608L23.3901 15.6032C23.5937 15.4264 23.6502 15.1335 23.5268 14.8938C22.6306 13.1519 23.0634 10.8767 24.5793 9.36078L26.0819 7.85817C27.0455 6.89458 28.3457 6.34194 29.6491 6.34194C30.7901 6.34194 31.8384 6.76182 32.6008 7.52425C34.306 9.22943 34.1562 12.1538 32.2669 14.0431L30.7643 15.5458C29.8008 16.5093 28.5008 17.0618 27.1976 17.0618C26.5005 17.0617 25.8206 16.9015 25.2314 16.5984C24.9917 16.475 24.6987 16.5315 24.522 16.7351L10.3867 33.0166ZM33.1619 33.1082L33.1081 33.162C32.6931 33.577 32.1295 33.7974 31.5209 33.7824C30.8048 33.7648 30.0937 33.4241 29.5692 32.8473L20.807 22.7988L22.6494 20.6767L32.8473 29.5692C33.4241 30.0938 33.7649 30.8049 33.7824 31.5209C33.7974 32.1294 33.577 32.693 33.1619 33.1082Z" fill="black"/>
<path d="M13.5214 12.1066C13.6356 12.2208 13.7854 12.2779 13.9351 12.2779C14.0848 12.2779 14.2345 12.2208 14.3487 12.1066C14.5772 11.8781 14.5772 11.5077 14.3487 11.2793L9.67268 6.6032C9.44422 6.37474 9.07382 6.37474 8.84536 6.6032C8.6169 6.83166 8.6169 7.20206 8.84536 7.43051L13.5214 12.1066ZM11.2792 14.3488C11.3934 14.463 11.5431 14.5201 11.6928 14.5201C11.8426 14.5201 11.9923 14.463 12.1065 14.3488C12.3349 14.1203 12.3349 13.7499 12.1065 13.5214L7.43049 8.84543C7.20203 8.61697 6.83162 8.61697 6.60316 8.84543C6.37472 9.07388 6.37471 9.44429 6.60316 9.67274L11.2792 14.3488Z" fill="black"/>
</svg>
