<svg width="64" height="64" viewBox="0 0 64 64" fill="none" xmlns="http://www.w3.org/2000/svg">
<path d="M16.39 23.75C15.2033 23.75 14.0433 23.3981 13.0566 22.7388C12.0699 22.0795 11.3008 21.1425 10.8467 20.0461C10.3926 18.9497 10.2738 17.7433 10.5053 16.5795C10.7368 15.4156 11.3082 14.3465 12.1473 13.5074C12.9865 12.6682 14.0556 12.0968 15.2194 11.8653C16.3833 11.6338 17.5897 11.7526 18.6861 12.2067C19.7824 12.6609 20.7195 13.4299 21.3788 14.4166C22.0381 15.4033 22.39 16.5633 22.39 17.75C22.3884 19.3408 21.7557 20.866 20.6309 21.9909C19.506 23.1158 17.9808 23.7484 16.39 23.75ZM16.39 13.75C15.5989 13.75 14.8255 13.9846 14.1677 14.4241C13.5099 14.8636 12.9972 15.4884 12.6945 16.2193C12.3917 16.9502 12.3125 17.7544 12.4668 18.5304C12.6212 19.3063 13.0022 20.019 13.5616 20.5784C14.121 21.1378 14.8337 21.5188 15.6096 21.6731C16.3856 21.8275 17.1898 21.7483 17.9207 21.4455C18.6516 21.1428 19.2763 20.6301 19.7159 19.9723C20.1554 19.3145 20.39 18.5411 20.39 17.75C20.39 16.6891 19.9686 15.6717 19.2184 14.9216C18.4683 14.1714 17.4509 13.75 16.39 13.75Z" fill="black"/>
<path d="M18.35 51.75C17.4984 51.7504 16.6802 51.4189 16.069 50.826C15.4586 51.4189 14.641 51.7504 13.79 51.75H13.67C12.8004 51.7489 11.9668 51.403 11.3519 50.7881C10.737 50.1732 10.3911 49.3396 10.39 48.47V39.259C9.87353 39.5795 9.27786 39.7496 8.67 39.75H7.625C7.09948 39.7498 6.58169 39.6233 6.11523 39.3813C5.64876 39.1392 5.24726 38.7887 4.94452 38.3591C4.64178 37.9295 4.44665 37.4335 4.37556 36.9128C4.30447 36.3922 4.35949 35.862 4.536 35.367L6.476 28.145C6.48294 28.119 6.49095 28.0933 6.5 28.068C6.84817 27.0976 7.4872 26.2583 8.32994 25.6645C9.17268 25.0707 10.1781 24.7514 11.209 24.75H21.372C22.4578 24.7534 23.5133 25.1087 24.3802 25.7626C25.247 26.4165 25.8785 27.3338 26.18 28.377L27.542 35.66C27.6703 36.1357 27.6868 36.6347 27.5902 37.1178C27.4936 37.601 27.2864 38.0552 26.985 38.445C26.6803 38.8509 26.2848 39.1799 25.8302 39.4056C25.3756 39.6313 24.8745 39.7476 24.367 39.745H23.174C22.6355 39.7456 22.1052 39.6134 21.63 39.36V48.46C21.6308 48.8914 21.5466 49.3188 21.3821 49.7177C21.2177 50.1165 20.9763 50.4791 20.6717 50.7846C20.3671 51.0901 20.0053 51.3327 19.6069 51.4983C19.2085 51.6639 18.7814 51.7495 18.35 51.75ZM17.069 48.47C17.0783 48.8034 17.2173 49.12 17.4564 49.3526C17.6956 49.5851 18.016 49.7152 18.3495 49.7152C18.683 49.7152 19.0034 49.5851 19.2426 49.3526C19.4817 49.12 19.6207 48.8034 19.63 48.47V31.63C19.6299 31.3701 19.731 31.1203 19.9119 30.9336C20.0927 30.747 20.3392 30.6381 20.599 30.63C20.8574 30.6269 21.1074 30.722 21.2984 30.8961C21.4895 31.0702 21.6072 31.3104 21.628 31.568L21.953 36.853C22.0336 37.1138 22.1957 37.342 22.4154 37.5039C22.6351 37.6659 22.901 37.7532 23.174 37.753H24.367C24.5657 37.7535 24.7618 37.7077 24.9397 37.6193C25.1176 37.5309 25.2726 37.4023 25.3922 37.2437C25.5118 37.0851 25.5929 36.9008 25.6289 36.7054C25.665 36.51 25.6551 36.3089 25.6 36.118L24.237 28.835C24.0428 28.2286 23.6607 27.6998 23.146 27.3249C22.6313 26.9501 22.0107 26.7487 21.374 26.75H11.209C10.5974 26.7516 10.0008 26.9396 9.49891 27.2891C8.997 27.6386 8.61363 28.1329 8.4 28.706L6.443 35.963C6.36072 36.1654 6.33007 36.385 6.35381 36.6022C6.37755 36.8193 6.45494 37.0272 6.579 37.207C6.69607 37.3757 6.85252 37.5134 7.03478 37.608C7.21705 37.7026 7.41964 37.7514 7.625 37.75H8.67C8.93413 37.7494 9.19167 37.6675 9.40762 37.5154C9.62357 37.3634 9.78745 37.1485 9.877 36.9L10.395 31.655C10.4142 31.3972 10.5349 31.1577 10.7307 30.9889C10.9265 30.8201 11.1812 30.736 11.439 30.755C11.6956 30.7676 11.9376 30.8785 12.1146 31.0647C12.2917 31.2509 12.3903 31.4981 12.39 31.755V48.47C12.3903 48.8094 12.5252 49.1348 12.7652 49.3748C13.0052 49.6148 13.3306 49.7497 13.67 49.75H13.79C14.1292 49.7495 14.4544 49.6144 14.6942 49.3745C14.9339 49.1345 15.0687 48.8092 15.069 48.47V38.07C15.069 37.8048 15.1744 37.5504 15.3619 37.3629C15.5494 37.1754 15.8038 37.07 16.069 37.07C16.3342 37.07 16.5886 37.1754 16.7761 37.3629C16.9636 37.5504 17.069 37.8048 17.069 38.07V48.47Z" fill="black"/>
<path d="M48.389 23.75C47.2023 23.75 46.0423 23.3981 45.0556 22.7388C44.0689 22.0795 43.2999 21.1425 42.8457 20.0461C42.3916 18.9497 42.2728 17.7433 42.5043 16.5795C42.7358 15.4156 43.3073 14.3465 44.1464 13.5074C44.9855 12.6682 46.0546 12.0968 47.2185 11.8653C48.3824 11.6338 49.5888 11.7526 50.6851 12.2067C51.7815 12.6609 52.7185 13.4299 53.3778 14.4166C54.0371 15.4033 54.389 16.5633 54.389 17.75C54.3872 19.3407 53.7544 20.8658 52.6296 21.9906C51.5048 23.1154 49.9797 23.7481 48.389 23.75ZM48.389 13.75C47.5979 13.75 46.8245 13.9846 46.1667 14.4241C45.5089 14.8636 44.9962 15.4884 44.6935 16.2193C44.3907 16.9502 44.3115 17.7544 44.4659 18.5304C44.6202 19.3063 45.0012 20.019 45.5606 20.5784C46.12 21.1378 46.8327 21.5188 47.6086 21.6731C48.3846 21.8275 49.1888 21.7483 49.9197 21.4455C50.6507 21.1428 51.2754 20.6301 51.7149 19.9723C52.1544 19.3145 52.389 18.5411 52.389 17.75C52.389 16.6891 51.9676 15.6717 51.2174 14.9216C50.4673 14.1714 49.4499 13.75 48.389 13.75Z" fill="black"/>
<path d="M50.345 51.75C49.4756 51.7487 48.6422 51.4026 48.0275 50.7878C47.4128 50.1729 47.0671 49.3394 47.066 48.47C47.066 48.2048 47.1714 47.9504 47.3589 47.7629C47.5464 47.5754 47.8008 47.47 48.066 47.47C48.3312 47.47 48.5856 47.5754 48.7731 47.7629C48.9606 47.9504 49.066 48.2048 49.066 48.47C49.066 48.7229 49.1411 48.9702 49.2818 49.1804C49.4225 49.3906 49.6224 49.5543 49.8563 49.6507C50.0901 49.7471 50.3473 49.7719 50.5953 49.7219C50.8432 49.6719 51.0708 49.5495 51.249 49.37C51.3692 49.2531 51.4646 49.1131 51.5294 48.9585C51.5941 48.8038 51.627 48.6377 51.626 48.47V44.25C51.626 43.9848 51.7314 43.7304 51.9189 43.5429C52.1064 43.3554 52.3608 43.25 52.626 43.25C52.8912 43.25 53.1456 43.3554 53.3331 43.5429C53.5207 43.7304 53.626 43.9848 53.626 44.25V48.47C53.6244 49.3396 53.2782 50.1731 52.6632 50.7879C52.0482 51.4027 51.2146 51.7487 50.345 51.75Z" fill="black"/>
<path d="M45.786 51.75H45.666C44.7963 51.7489 43.9626 51.4031 43.3475 50.7882C42.7325 50.1733 42.3863 49.3397 42.385 48.47V44.25C42.385 43.9848 42.4904 43.7304 42.6779 43.5429C42.8654 43.3554 43.1198 43.25 43.385 43.25C43.6502 43.25 43.9046 43.3554 44.0921 43.5429C44.2797 43.7304 44.385 43.9848 44.385 44.25V48.47C44.3855 48.8095 44.5207 49.1349 44.7609 49.3749C45.001 49.6148 45.3265 49.7497 45.666 49.75H45.786C46.1254 49.7497 46.4508 49.6148 46.6908 49.3748C46.9308 49.1348 47.0657 48.8094 47.066 48.47V44.25C47.066 43.9848 47.1714 43.7304 47.3589 43.5429C47.5464 43.3554 47.8008 43.25 48.066 43.25C48.3312 43.25 48.5856 43.3554 48.7731 43.5429C48.9607 43.7304 49.066 43.9848 49.066 44.25V48.47C49.065 49.3396 48.719 50.1732 48.1042 50.7881C47.4893 51.403 46.6556 51.7489 45.786 51.75Z" fill="black"/>
<path d="M55 45.25H41C40.8455 45.2501 40.6931 45.2143 40.5547 45.1456C40.4164 45.0769 40.2958 44.977 40.2025 44.8539C40.1092 44.7308 40.0457 44.5877 40.017 44.4359C39.9883 44.2841 39.9951 44.1277 40.037 43.979L41.237 39.7C41.0488 39.7328 40.8581 39.7495 40.667 39.75H39.627C39.1009 39.7505 38.5824 39.6245 38.1152 39.3827C37.648 39.1408 37.2458 38.7901 36.9425 38.3602C36.6393 37.9302 36.4439 37.4337 36.3728 36.9124C36.3017 36.3912 36.357 35.8604 36.534 35.365L38.48 28.14C38.8165 27.1531 39.4528 26.2958 40.3 25.6881C41.1473 25.0803 42.1633 24.7524 43.206 24.75H53.376C54.4606 24.7539 55.5147 25.1094 56.3802 25.7632C57.2456 26.417 57.8758 27.3338 58.176 28.376L59.538 35.656C59.667 36.1321 59.6842 36.6315 59.5883 37.1153C59.4923 37.5991 59.2859 38.0542 58.985 38.445C58.6802 38.8513 58.2844 39.1805 57.8294 39.4063C57.3745 39.632 56.8729 39.748 56.365 39.745H55.175C55.038 39.7447 54.9011 39.7364 54.765 39.72L55.959 43.974C56.0017 44.1227 56.0093 44.2793 55.9812 44.4314C55.9532 44.5836 55.8902 44.7271 55.7972 44.8508C55.7043 44.9745 55.5839 45.0749 55.4456 45.1442C55.3072 45.2134 55.1547 45.2497 55 45.25ZM42.32 43.25H53.68L52.064 37.5C52.0383 37.4205 52.0153 37.3401 51.995 37.259C51.995 37.247 51.989 37.236 51.987 37.225L51.663 36.069C51.6383 35.9811 51.6258 35.8903 51.626 35.799V31.63C51.6176 31.3648 51.715 31.1071 51.8966 30.9137C52.0782 30.7202 52.3293 30.6069 52.5945 30.5985C52.8597 30.5901 53.1174 30.6875 53.3108 30.8691C53.5043 31.0507 53.6176 31.3018 53.626 31.567L53.976 36.906C54.0646 37.1532 54.2275 37.367 54.4423 37.5181C54.6571 37.6691 54.9134 37.7502 55.176 37.75H56.367C56.5654 37.7505 56.7612 37.7047 56.9389 37.6163C57.1165 37.5279 57.2711 37.3992 57.3903 37.2406C57.5095 37.082 57.5901 36.8977 57.6256 36.7025C57.6612 36.5073 57.6507 36.3065 57.595 36.116L56.233 28.834C56.0404 28.2281 55.6596 27.6994 55.146 27.3247C54.6324 26.9499 54.0128 26.7486 53.377 26.75H43.206C42.5892 26.7487 41.9871 26.9386 41.4827 27.2935C40.9782 27.6485 40.5961 28.151 40.389 28.732L38.441 35.961C38.3587 36.1639 38.3281 36.384 38.3518 36.6016C38.3755 36.8193 38.4529 37.0276 38.577 37.208C38.6947 37.3767 38.8517 37.5142 39.0345 37.6087C39.2173 37.7031 39.4203 37.7516 39.626 37.75H40.666C40.9314 37.75 41.1903 37.6683 41.4077 37.5161C41.625 37.3638 41.7903 37.1484 41.881 36.899L42.39 31.653C42.4156 31.3977 42.5384 31.162 42.7329 30.9947C42.9274 30.8274 43.1788 30.7413 43.4351 30.7541C43.6913 30.767 43.9328 30.8778 44.1096 31.0637C44.2864 31.2497 44.385 31.4964 44.385 31.753V35.753C44.3853 35.8446 44.3728 35.9358 44.348 36.024L42.32 43.25Z" fill="black"/>
<path d="M35.166 39.11H28.826C28.6478 39.1103 28.4728 39.063 28.319 38.973L26.319 37.798C26.2162 37.7664 26.1197 37.717 26.034 37.652C25.928 37.5767 25.838 37.481 25.7694 37.3706C25.7008 37.2601 25.655 37.1371 25.6345 37.0087C25.614 36.8803 25.6193 36.7491 25.6501 36.6228C25.681 36.4964 25.7367 36.3775 25.814 36.273L25.843 36.233C25.9902 36.0353 26.2052 35.8989 26.4468 35.8499C26.6884 35.801 26.9395 35.8431 27.152 35.968L29.1 37.11H34.9L36.845 35.968C37.0559 35.845 37.3046 35.8035 37.5441 35.8512C37.7835 35.8989 37.9973 36.0326 38.145 36.227C38.3073 36.4399 38.3794 36.708 38.346 36.9736C38.3125 37.2392 38.176 37.481 37.966 37.647C37.8716 37.7188 37.7658 37.7743 37.653 37.811L35.674 38.973C35.5199 39.0632 35.3445 39.1105 35.166 39.11Z" fill="black"/>
<path d="M32 35.65C31.3276 35.65 30.6702 35.4506 30.1111 35.077C29.5519 34.7034 29.1162 34.1724 28.8588 33.5511C28.6015 32.9299 28.5341 32.2462 28.6653 31.5867C28.7965 30.9272 29.1203 30.3213 29.5958 29.8458C30.0713 29.3703 30.6772 29.0465 31.3367 28.9153C31.9962 28.7841 32.6799 28.8515 33.3011 29.1088C33.9224 29.3662 34.4534 29.8019 34.827 30.3611C35.2006 30.9202 35.4 31.5776 35.4 32.25C35.4 33.1517 35.0418 34.0165 34.4042 34.6542C33.7665 35.2918 32.9017 35.65 32 35.65ZM32 30.85C31.7231 30.85 31.4524 30.9321 31.2222 31.0859C30.992 31.2398 30.8125 31.4584 30.7066 31.7142C30.6006 31.9701 30.5729 32.2516 30.6269 32.5231C30.6809 32.7947 30.8143 33.0442 31.0101 33.24C31.2059 33.4357 31.4553 33.5691 31.7269 33.6231C31.9985 33.6771 32.2799 33.6494 32.5358 33.5434C32.7916 33.4375 33.0102 33.258 33.1641 33.0278C33.3179 32.7976 33.4 32.5269 33.4 32.25C33.4 31.8787 33.2525 31.5226 32.99 31.2601C32.7274 30.9975 32.3713 30.85 32 30.85Z" fill="black"/>
<path d="M33.5 52.25C32.959 52.2508 32.4324 52.0753 32 51.75C31.6286 52.0286 31.1869 52.1982 30.7245 52.2399C30.2621 52.2816 29.7972 52.1937 29.382 51.9861C28.9667 51.7784 28.6175 51.4593 28.3734 51.0643C28.1293 50.6694 28 50.2143 28 49.75V44.979C27.5149 44.3754 27.2503 43.6244 27.25 42.85V41.424L24.686 39.324C24.4867 39.1542 24.3619 38.913 24.3385 38.6521C24.3151 38.3913 24.3949 38.1317 24.5609 37.9292C24.7268 37.7266 24.9655 37.5971 25.2259 37.5687C25.4862 37.5402 25.7472 37.615 25.953 37.777L28.884 40.177C28.9984 40.2708 29.0905 40.3887 29.1538 40.5224C29.2171 40.6561 29.25 40.8021 29.25 40.95V42.85C29.2492 43.0388 29.2872 43.2257 29.3615 43.3993C29.4358 43.5728 29.5449 43.7293 29.682 43.859C29.7823 43.9525 29.8623 44.0657 29.917 44.1914C29.9717 44.3172 30 44.4529 30 44.59V49.75C30 49.8826 30.0527 50.0098 30.1465 50.1036C30.2402 50.1973 30.3674 50.25 30.5 50.25C30.6326 50.25 30.7598 50.1973 30.8536 50.1036C30.9473 50.0098 31 49.8826 31 49.75V45.25C31 44.9848 31.1054 44.7304 31.2929 44.5429C31.4804 44.3554 31.7348 44.25 32 44.25C32.2652 44.25 32.5196 44.3554 32.7071 44.5429C32.8947 44.7304 33 44.9848 33 45.25V49.75C33 49.8826 33.0527 50.0098 33.1465 50.1036C33.2402 50.1973 33.3674 50.25 33.5 50.25C33.6326 50.25 33.7598 50.1973 33.8536 50.1036C33.9473 50.0098 34 49.8826 34 49.75V44.59C33.9999 44.4529 34.028 44.3173 34.0826 44.1916C34.1371 44.0658 34.2169 43.9526 34.317 43.859C34.4545 43.7295 34.5639 43.5731 34.6383 43.3995C34.7128 43.2259 34.7508 43.0389 34.75 42.85V40.95C34.7501 40.8021 34.7829 40.6561 34.8462 40.5224C34.9095 40.3887 35.0016 40.2708 35.116 40.177L38.056 37.767C38.1571 37.6802 38.2745 37.6145 38.4013 37.5737C38.5281 37.5329 38.6618 37.5178 38.7946 37.5294C38.9273 37.541 39.0564 37.579 39.1742 37.6412C39.292 37.7033 39.3963 37.7884 39.4808 37.8914C39.5653 37.9945 39.6283 38.1133 39.6662 38.241C39.7041 38.3688 39.7161 38.5028 39.7015 38.6352C39.6869 38.7676 39.646 38.8958 39.5812 39.0122C39.5164 39.1286 39.4289 39.2309 39.324 39.313L36.75 41.424V42.85C36.7498 43.6244 36.4852 44.3754 36 44.979V49.75C36 50.413 35.7366 51.0489 35.2678 51.5178C34.7989 51.9866 34.1631 52.25 33.5 52.25Z" fill="black"/>
</svg>
