<svg width="64" height="64" viewBox="0 0 64 64" fill="none" xmlns="http://www.w3.org/2000/svg">
<path d="M61 60H57V37C57 36.7348 56.8946 36.4804 56.7071 36.2929C56.5196 36.1054 56.2652 36 56 36H50V21C50 20.7348 49.8946 20.4804 49.7071 20.2929C49.5196 20.1054 49.2652 20 49 20H46C46 19.9 46 19.8 46 19.7C46 19.6 46 19.46 46 19.34C46 19.22 46 18.99 45.94 18.81C45.94 18.81 45.94 18.81 45.94 18.73C45.7276 17.7593 45.4125 16.814 45 15.91C45 15.91 45 15.85 45 15.83C44.9742 15.7615 44.9441 15.6947 44.91 15.63C44.8843 15.5582 44.8542 15.4881 44.82 15.42C44.67 15.07 44.51 14.73 44.33 14.42L44.27 14.31C43.309 12.5298 41.9708 10.981 40.3489 9.77191C38.7269 8.56281 36.8605 7.72259 34.88 7.31H34.67C34.32 7.25 33.97 7.19 33.67 7.15H33.34H33.04V3C33.04 2.73478 32.9346 2.48043 32.7471 2.29289C32.5596 2.10536 32.3052 2 32.04 2C31.7748 2 31.5204 2.10536 31.3329 2.29289C31.1454 2.48043 31.04 2.73478 31.04 3V7.05H30.74H30.41C30.06 7.05 29.71 7.15 29.36 7.21H29.15C27.1703 7.6245 25.3046 8.46547 23.683 9.67438C22.0613 10.8833 20.7226 12.4311 19.76 14.21C19.7564 14.2432 19.7564 14.2768 19.76 14.31C19.57 14.65 19.41 15 19.25 15.31C19.25 15.38 19.19 15.44 19.17 15.5C19.1358 15.5681 19.1057 15.6382 19.08 15.71C19.08 15.71 19.08 15.76 19.08 15.79C18.7256 16.7006 18.4676 17.6457 18.31 18.61C18.31 18.61 18.31 18.66 18.31 18.69C18.31 18.72 18.31 19.03 18.25 19.2C18.19 19.37 18.25 19.46 18.25 19.59C18.25 19.72 18.25 19.78 18.25 19.88H15C14.7348 19.88 14.4804 19.9854 14.2929 20.1729C14.1054 20.3604 14 20.6148 14 20.88V36H9C8.73478 36 8.48043 36.1054 8.29289 36.2929C8.10536 36.4804 8 36.7348 8 37V60H3.75C3.48478 60 3.23043 60.1054 3.04289 60.2929C2.85536 60.4804 2.75 60.7348 2.75 61C2.75 61.2652 2.85536 61.5196 3.04289 61.7071C3.23043 61.8946 3.48478 62 3.75 62H61C61.2652 62 61.5196 61.8946 61.7071 61.7071C61.8946 61.5196 62 61.2652 62 61C62 60.7348 61.8946 60.4804 61.7071 60.2929C61.5196 60.1054 61.2652 60 61 60ZM34 11.91C34.0357 11.783 34.0962 11.6644 34.178 11.5609C34.2597 11.4574 34.3611 11.3711 34.4764 11.3069C34.5917 11.2428 34.7185 11.2021 34.8495 11.1872C34.9806 11.1723 35.1133 11.1834 35.24 11.22C36.9434 11.7078 38.442 12.7361 39.51 14.15C39.6702 14.3609 39.7402 14.6268 39.7045 14.8893C39.6689 15.1518 39.5306 15.3894 39.32 15.55C39.1469 15.6798 38.9364 15.75 38.72 15.75C38.5656 15.7512 38.413 15.7166 38.2742 15.6489C38.1354 15.5812 38.0142 15.4824 37.92 15.36C37.1097 14.2944 35.9767 13.5193 34.69 13.15C34.563 13.1143 34.4444 13.0538 34.3409 12.972C34.2374 12.8903 34.1511 12.7889 34.0869 12.6736C34.0228 12.5583 33.9821 12.4315 33.9672 12.3005C33.9523 12.1694 33.9634 12.0367 34 11.91ZM29 42V60H24V42H29ZM34 25V36H30V25H34ZM35 42H40V60H35V42ZM40 36V25H44V36H40ZM20 25H24V36H20V25ZM14 42H18V60H14V42ZM49.93 60H46V42H51V60H49.93Z" fill="black"/>
</svg>
