<svg width="48" height="48" viewBox="0 0 48 48" fill="none" xmlns="http://www.w3.org/2000/svg">
<g clip-path="url(#clip0_748_163)">
<path d="M47.8875 37.11C47.6325 36.6975 41.5275 27 29.25 27C24.4125 27 20.535 28.5075 17.595 30.3525C16.455 26.6175 13.0125 24 9 24C6.6525 24 4.5225 24.9075 2.9175 26.385C2.8875 26.4075 2.85 26.4225 2.8275 26.4525C2.82 26.46 2.8125 26.475 2.805 26.49C1.08 28.1325 0 30.4425 0 33C0 35.5575 1.08 37.8675 2.805 39.51C2.8125 39.525 2.82 39.54 2.8275 39.5475C2.85 39.5775 2.88 39.585 2.91 39.6075C4.515 41.085 6.6525 42 9 42C10.4325 42 11.835 41.64 13.11 40.9875C15.975 43.965 21.3225 48 29.25 48C41.5275 48 47.6325 38.3025 47.8875 37.89C48.0375 37.6501 48.0375 37.35 47.8875 37.11ZM3.3825 37.95C2.2125 36.63 1.5 34.8975 1.5 33C1.5 31.1025 2.2125 29.37 3.3825 28.05C4.59 29.415 5.25 31.1475 5.25 33C5.25 34.8525 4.59 36.585 3.3825 37.95ZM14.625 28.035C15.42 28.935 15.9975 30.0225 16.29 31.245C14.8801 32.265 13.74 33.33 12.8626 34.2675C12.7876 33.855 12.7501 33.4275 12.7501 33C12.7501 31.1475 13.41 29.4075 14.625 28.035ZM16.5 41.985C14.175 40.155 12.72 38.2875 12.1575 37.5C12.72 36.705 14.175 34.8375 16.5 33.0075V41.985ZM19.5 43.9725C18.9675 43.68 18.4725 43.38 18 43.065V31.9275C18.4725 31.6125 18.9675 31.3125 19.5 31.02V43.9725ZM34.5 38.25H33.75V39C33.75 39.4125 33.4125 39.75 33 39.75C32.5875 39.75 32.25 39.4125 32.25 39V38.25H30V39C30 39.4125 29.6625 39.75 29.25 39.75C28.8375 39.75 28.5 39.4125 28.5 39V38.25H26.25V39C26.25 39.4125 25.9125 39.75 25.5 39.75C25.0875 39.75 24.75 39.4125 24.75 39V38.25H24C23.5875 38.25 23.25 37.9125 23.25 37.5C23.25 37.0875 23.5875 36.75 24 36.75H24.75V36C24.75 35.5875 25.0875 35.25 25.5 35.25C25.9125 35.25 26.25 35.5875 26.25 36V36.75H28.5V36C28.5 35.5875 28.8375 35.25 29.25 35.25C29.6625 35.25 30 35.5875 30 36V36.75H32.25V36C32.25 35.5875 32.5875 35.25 33 35.25C33.4125 35.25 33.75 35.5875 33.75 36V36.75H34.5C34.9125 36.75 35.25 37.0875 35.25 37.5C35.25 37.9125 34.9125 38.25 34.5 38.25ZM40.5 43.0725C40.0275 43.3875 39.5325 43.6875 39 43.98V31.0275C39.5325 31.32 40.0275 31.62 40.5 31.935V43.0725ZM42 41.9925V33.015C44.325 34.845 45.78 36.7126 46.3425 37.5C45.78 38.295 44.325 40.1625 42 41.9925Z" fill="black"/>
<path d="M19.9275 12.66C16.5225 15.2475 14.0325 19.005 13.1325 23.34C15.3675 24.285 17.2125 25.9875 18.3375 28.1925C18.9975 27.84 19.6725 27.525 20.355 27.24C19.3575 25.1925 18.825 23.115 18.75 21.0225C18.675 18.8325 19.1325 17.04 19.4925 15.6C19.7925 14.43 20.0175 13.4925 19.9275 12.66ZM36.1125 26.52C38.0475 22.665 38.5275 19.3875 37.545 16.7625C37.0275 15.3825 36.1725 14.325 35.34 13.3125C34.35 12.0975 33.345 10.845 33.075 9.1575C32.31 9.06 31.53 9 30.75 9C30.0675 9 29.4 9.0525 28.7325 9.1275C30.5325 12.7875 31.5 16.845 31.5 21C31.5 22.5375 31.3725 24.0675 31.11 25.575C32.9175 25.71 34.5825 26.0475 36.1125 26.52Z" fill="black"/>
<path d="M34.665 9.4275C34.98 10.4925 35.7 11.3775 36.5025 12.36C37.365 13.425 38.3475 14.625 38.955 16.2375C40.0725 19.2225 39.6 22.8375 37.545 27.015C39.7875 27.8625 41.7 29.0025 43.29 30.1875C45.3675 27.03 46.5 23.31 46.5 19.5C46.5 18.7875 46.4625 18.09 46.3875 17.3925L44.67 15.585C42.06 12.42 38.55 10.29 34.665 9.4275ZM29.25 25.5C29.3625 25.5 29.4825 25.5 29.595 25.5075C29.865 24.03 30 22.5149 30 21C30 16.92 29.0175 12.9375 27.1875 9.3675C25.065 9.8025 23.0625 10.62 21.2625 11.7375C21.6675 13.065 21.3375 14.43 20.9475 15.9675C20.5875 17.385 20.1825 18.9975 20.25 20.9775C20.3175 22.8975 20.8275 24.8175 21.7725 26.715C24.1575 25.905 26.6549 25.5 29.25 25.5ZM20.58 10.41C22.365 9.3 24.3375 8.4825 26.4225 7.995C25.11 5.775 23.46 3.7425 21.495 1.995L20.4975 1.1175C16.8 2.4225 13.62 4.815 11.3325 7.905H11.7075C16.2525 7.77 19.1775 8.5875 20.58 10.41ZM45.795 14.5875L45.9 14.7C44.67 9.855 41.625 5.73 37.53 3.105L36.75 3.7725C35.4075 5.115 34.6575 6.5025 34.53 7.875C38.91 8.73 42.8925 11.07 45.795 14.5875ZM9 22.5C9.93 22.5 10.8375 22.62 11.7 22.8525C12.735 18.1125 15.525 14.0175 19.32 11.2575C18.2025 9.915 15.6675 9.285 11.73 9.405L10.3275 9.3975C8.535 12.345 7.5 15.8025 7.5 19.5C7.5 20.535 7.5825 21.5625 7.7475 22.575C8.16 22.5225 8.5725 22.5 9 22.5ZM27.9825 7.7025C28.89 7.5675 29.8125 7.5 30.75 7.5C31.5225 7.5 32.2875 7.545 33.0375 7.635C33.225 5.9475 34.125 4.2825 35.73 2.67L36.1725 2.295C33.435 0.8325 30.315 0 27 0C25.335 0 23.7225 0.21 22.185 0.6L22.4925 0.87C24.705 2.85 26.55 5.1675 27.9825 7.7025Z" fill="black"/>
</g>
<defs>
<clipPath id="clip0_748_163">
<rect width="48" height="48" fill="white"/>
</clipPath>
</defs>
</svg>
