<svg width="52" height="52" viewBox="0 0 52 52" fill="none" xmlns="http://www.w3.org/2000/svg">
<path d="M41.4375 17.0625H39.8125V4.46875C39.8121 4.14563 39.6836 3.83585 39.4551 3.60737C39.2266 3.37889 38.9169 3.25037 38.5938 3.25H20.3125V1.625H38.5938C39.3477 1.62584 40.0705 1.92572 40.6037 2.45885C41.1368 2.99197 41.4367 3.7148 41.4375 4.46875V17.0625ZM12.1875 18.6875H10.5625V4.46875C10.5633 3.7148 10.8632 2.99197 11.3963 2.45885C11.9295 1.92572 12.6523 1.62584 13.4062 1.625H18.6875V3.25H13.4062C13.0831 3.25037 12.7734 3.37889 12.5449 3.60737C12.3164 3.83585 12.1879 4.14563 12.1875 4.46875V18.6875Z" fill="black"/>
<path d="M28.4375 37.375H23.5625V39H28.4375V37.375Z" fill="black"/>
<path d="M15.4375 4.875H13.8125V6.5H15.4375V4.875Z" fill="black"/>
<path d="M15.4375 8.125H13.8125V9.75H15.4375V8.125Z" fill="black"/>
<path d="M15.4375 11.375H13.8125V13H15.4375V11.375Z" fill="black"/>
<path d="M15.4375 14.625H13.8125V16.25H15.4375V14.625Z" fill="black"/>
<path d="M15.4375 17.875H13.8125V19.5H15.4375V17.875Z" fill="black"/>
<path d="M15.4375 21.125H13.8125V22.75H15.4375V21.125Z" fill="black"/>
<path d="M15.4375 27.625H13.8125V29.25H15.4375V27.625Z" fill="black"/>
<path d="M15.4375 30.875H13.8125V32.5H15.4375V30.875Z" fill="black"/>
<path d="M38.1875 4.875H36.5625V6.5H38.1875V4.875Z" fill="black"/>
<path d="M38.1875 8.125H36.5625V9.75H38.1875V8.125Z" fill="black"/>
<path d="M38.1875 11.375H36.5625V13H38.1875V11.375Z" fill="black"/>
<path d="M38.1875 14.625H36.5625V16.25H38.1875V14.625Z" fill="black"/>
<path d="M38.1875 17.875H36.5625V19.5H38.1875V17.875Z" fill="black"/>
<path d="M18.6875 4.875H17.0625V6.5H18.6875V4.875Z" fill="black"/>
<path d="M21.9375 4.875H20.3125V6.5H21.9375V4.875Z" fill="black"/>
<path d="M25.1875 4.875H23.5625V6.5H25.1875V4.875Z" fill="black"/>
<path d="M28.4375 4.875H26.8125V6.5H28.4375V4.875Z" fill="black"/>
<path d="M31.6875 4.875H30.0625V6.5H31.6875V4.875Z" fill="black"/>
<path d="M34.9375 4.875H33.3125V6.5H34.9375V4.875Z" fill="black"/>
<path d="M15.0312 47.125H5.6875C5.47201 47.125 5.26535 47.0394 5.11298 46.887C4.9606 46.7347 4.875 46.528 4.875 46.3125V45.0938C4.87584 44.3398 5.17572 43.617 5.70885 43.0838C6.24197 42.5507 6.9648 42.2508 7.71875 42.25H17.0625C17.278 42.25 17.4847 42.3356 17.637 42.488C17.7894 42.6403 17.875 42.847 17.875 43.0625V44.2812C17.8742 45.0352 17.5743 45.758 17.0412 46.2912C16.508 46.8243 15.7852 47.1242 15.0312 47.125ZM6.5 45.5H15.0312C15.3544 45.4996 15.6641 45.3711 15.8926 45.1426C16.1211 44.9141 16.2496 44.6044 16.25 44.2812V43.875H7.71875C7.39563 43.8754 7.08585 44.0039 6.85737 44.2324C6.62889 44.4609 6.50037 44.7706 6.5 45.0938V45.5Z" fill="black"/>
<path d="M43.875 36.5625H40.625V38.1875H43.875V36.5625Z" fill="black"/>
<path d="M38.1875 33.3125C37.972 33.3125 37.7653 33.3981 37.613 33.5505C37.4606 33.7028 37.375 33.9095 37.375 34.125V43.875C37.375 44.0905 37.4606 44.2972 37.613 44.4495C37.7653 44.6019 37.972 44.6875 38.1875 44.6875H46.3125C46.528 44.6875 46.7347 44.6019 46.887 44.4495C47.0394 44.2972 47.125 44.0905 47.125 43.875V34.125C47.125 33.9095 47.0394 33.7028 46.887 33.5505C46.7347 33.3981 46.528 33.3125 46.3125 33.3125H38.1875ZM45.5 43.0625H39V34.9375H45.5V43.0625Z" fill="black"/>
<path d="M43.875 39.8125H40.625V41.4375H43.875V39.8125Z" fill="black"/>
<path d="M50.375 33.3125V30.2656C50.3745 29.7809 50.1817 29.3163 49.839 28.9735C49.4962 28.6308 49.0316 28.438 48.5469 28.4375H46.3125V26.2031C46.3119 25.7536 46.146 25.32 45.8463 24.9849C45.5467 24.6499 45.1342 24.4368 44.6875 24.3862V23.5625C44.903 23.5625 45.1097 23.4769 45.262 23.3245C45.4144 23.1722 45.5 22.9655 45.5 22.75V19.5C45.5 19.2845 45.4144 19.0778 45.262 18.9255C45.1097 18.7731 44.903 18.6875 44.6875 18.6875H39.8125C39.597 18.6875 39.3903 18.7731 39.238 18.9255C39.0856 19.0778 39 19.2845 39 19.5V20.3125H36.5625C36.4558 20.3125 36.3501 20.3335 36.2516 20.3743C36.153 20.4152 36.0634 20.475 35.988 20.5505L34.363 22.1755L35.512 23.3245L36.899 21.9375H39V22.75C39 22.9655 39.0856 23.1722 39.238 23.3245C39.3903 23.4769 39.597 23.5625 39.8125 23.5625V24.3862C39.3658 24.4368 38.9533 24.6499 38.6537 24.9849C38.354 25.32 38.1881 25.7536 38.1875 26.2031V28.4375H35.9531C35.4684 28.438 35.0038 28.6308 34.661 28.9735C34.3183 29.3163 34.1255 29.7809 34.125 30.2656V40.625H21.1138C21.0671 40.2131 20.8821 39.8292 20.5889 39.5361C20.2958 39.2429 19.9119 39.0579 19.5 39.0112V36.7656C19.4995 36.2809 19.3067 35.8163 18.964 35.4735C18.6212 35.1308 18.1566 34.938 17.6719 34.9375H5.07812C4.59344 34.938 4.12876 35.1308 3.78604 35.4735C3.44332 35.8163 3.25054 36.2809 3.25 36.7656V39.0112C2.80332 39.0618 2.39084 39.2749 2.09116 39.6099C1.79148 39.945 1.62556 40.3786 1.625 40.8281V43.0625H3.25V40.8281C3.25005 40.7743 3.27147 40.7226 3.30955 40.6846C3.34764 40.6465 3.39927 40.6251 3.45312 40.625H19.2969C19.3507 40.6251 19.4024 40.6465 19.4404 40.6846C19.4785 40.7226 19.4999 40.7743 19.5 40.8281V48.5469C19.4999 48.6007 19.4785 48.6524 19.4404 48.6904C19.4024 48.7285 19.3507 48.7499 19.2969 48.75H3.45312C3.39927 48.7499 3.34764 48.7285 3.30955 48.6904C3.27147 48.6524 3.25005 48.6007 3.25 48.5469V44.6875H1.625V48.5469C1.62554 49.0316 1.81832 49.4962 2.16104 49.839C2.50376 50.1817 2.96844 50.3745 3.45312 50.375H48.5469C49.0316 50.3745 49.4962 50.1817 49.839 49.839C50.1817 49.4962 50.3745 49.0316 50.375 48.5469V34.9375H48.75V48.5469C48.7499 48.6007 48.7285 48.6524 48.6904 48.6904C48.6524 48.7285 48.6007 48.7499 48.5469 48.75H35.9531C35.8993 48.7499 35.8476 48.7285 35.8096 48.6904C35.7715 48.6524 35.7501 48.6007 35.75 48.5469V30.2656C35.7501 30.2118 35.7715 30.1601 35.8096 30.1221C35.8476 30.084 35.8993 30.0626 35.9531 30.0625H48.5469C48.6007 30.0626 48.6524 30.084 48.6904 30.1221C48.7285 30.1601 48.7499 30.2118 48.75 30.2656V33.3125H50.375ZM34.125 42.25V45.5H21.125V42.25H34.125ZM4.875 39V36.7656C4.87505 36.7118 4.89647 36.6601 4.93455 36.6221C4.97264 36.584 5.02427 36.5626 5.07812 36.5625H17.6719C17.7257 36.5626 17.7774 36.584 17.8154 36.6221C17.8535 36.6601 17.8749 36.7118 17.875 36.7656V39H4.875ZM21.1138 48.75C21.1213 48.6826 21.125 48.6147 21.125 48.5469V47.125H34.125V48.5469C34.125 48.6147 34.1287 48.6826 34.1362 48.75H21.1138ZM40.625 20.3125H43.875V21.9375H40.625V20.3125ZM43.0625 23.5625V24.375H41.4375V23.5625H43.0625ZM44.6875 28.4375H39.8125V26.2031C39.8126 26.1493 39.834 26.0976 39.8721 26.0596C39.9101 26.0215 39.9618 26.0001 40.0156 26H44.4844C44.5382 26.0001 44.5899 26.0215 44.6279 26.0596C44.666 26.0976 44.6874 26.1493 44.6875 26.2031V28.4375Z" fill="black"/>
<path d="M5.2976 25.9004L7.71502 27.2225L9.03712 29.6399C9.10708 29.7678 9.21018 29.8746 9.33561 29.9489C9.46104 30.0233 9.60417 30.0625 9.74999 30.0625C9.8958 30.0625 10.0389 30.0233 10.1644 29.9489C10.2898 29.8746 10.3929 29.7678 10.4629 29.6399L10.5625 29.4577V33.3125H12.1875V27.0023L14.2024 25.9004C14.3303 25.8304 14.4371 25.7273 14.5114 25.6019C14.5858 25.4764 14.625 25.3333 14.625 25.1875C14.625 25.0417 14.5858 24.8986 14.5114 24.7731C14.4371 24.6477 14.3303 24.5446 14.2024 24.4746L11.785 23.1525L10.4629 20.7351C10.3929 20.6072 10.2898 20.5004 10.1644 20.4261C10.0389 20.3517 9.8958 20.3125 9.74999 20.3125C9.60417 20.3125 9.46104 20.3517 9.33561 20.4261C9.21018 20.5004 9.10708 20.6072 9.03712 20.7351L7.71502 23.1525L5.2976 24.4746C5.16966 24.5446 5.06291 24.6477 4.98855 24.7731C4.91418 24.8986 4.87494 25.0417 4.87494 25.1875C4.87494 25.3333 4.91418 25.4764 4.98855 25.6019C5.06291 25.7273 5.16966 25.8304 5.2976 25.9004ZM8.70357 24.4641C8.83988 24.3895 8.95196 24.2774 9.02654 24.1411L9.74999 22.8183L10.4734 24.1411C10.548 24.2774 10.6601 24.3895 10.7964 24.4641L12.1192 25.1875L10.7964 25.9109C10.6601 25.9855 10.548 26.0976 10.4734 26.2339L9.74999 27.5567L9.02656 26.2339C8.95198 26.0976 8.8399 25.9855 8.70359 25.911L7.38078 25.1875L8.70357 24.4641Z" fill="black"/>
<path d="M20.7188 19.2867C20.5729 19.2867 20.4298 19.2474 20.3044 19.1731C20.179 19.0987 20.0759 18.992 20.0059 18.864L19.1147 17.2345L17.4851 16.3433C17.3572 16.2733 17.2505 16.1702 17.1761 16.0448C17.1017 15.9194 17.0625 15.7762 17.0625 15.6304C17.0625 15.4846 17.1017 15.3415 17.1761 15.2161C17.2505 15.0906 17.3572 14.9875 17.4851 14.9175L19.1147 14.0263L20.0059 12.3968C20.0758 12.2688 20.1789 12.1621 20.3044 12.0877C20.4298 12.0134 20.5729 11.9741 20.7188 11.9741C20.8646 11.9741 21.0077 12.0134 21.1331 12.0877C21.2586 12.1621 21.3617 12.2688 21.4316 12.3968L22.3228 14.0263L23.9524 14.9175C24.0803 14.9875 24.187 15.0906 24.2614 15.2161C24.3358 15.3415 24.375 15.4846 24.375 15.6304C24.375 15.7762 24.3358 15.9194 24.2614 16.0448C24.187 16.1702 24.0803 16.2733 23.9524 16.3433L22.3228 17.2345L21.4316 18.864C21.3616 18.992 21.2585 19.0987 21.1331 19.1731C21.0077 19.2474 20.8646 19.2867 20.7188 19.2867ZM19.5683 15.6304L20.1032 15.9229C20.2395 15.9975 20.3516 16.1096 20.4262 16.2459L20.7187 16.7808L21.0112 16.2459C21.0858 16.1096 21.1979 15.9975 21.3342 15.9229L21.8691 15.6304L21.3342 15.3379C21.1979 15.2633 21.0858 15.1513 21.0112 15.0149L20.7188 14.4799L20.4262 15.0149C20.3517 15.1512 20.2396 15.2633 20.1033 15.3379L19.5683 15.6304Z" fill="black"/>
</svg>
