<svg width="51" height="51" viewBox="0 0 51 51" fill="none" xmlns="http://www.w3.org/2000/svg">
<g clip-path="url(#clip0_747_74)">
<path d="M25.5 0C11.4279 0 0 11.4279 0 25.5C0 39.5721 11.4279 51 25.5 51C39.5721 51 51 39.5721 51 25.5C51 11.4279 39.5721 0 25.5 0ZM25.5 1.96546C38.5109 1.96546 49.0385 12.4891 49.0385 25.5C49.0385 38.5109 38.5109 49.0385 25.5 49.0385C12.4891 49.0385 1.96154 38.5109 1.96154 25.5C1.96154 12.4891 12.4891 1.96546 25.5 1.96546ZM35.1076 12.1753C34.1053 12.1753 33.097 12.5676 32.334 13.3287L27.8558 17.8029L16.6044 15.8002C16.4488 15.7721 16.2887 15.782 16.1377 15.8291C15.9867 15.8763 15.8494 15.9592 15.7374 16.0709L12.9658 18.8445C12.847 18.9625 12.7604 19.1089 12.7142 19.2698C12.668 19.4307 12.6638 19.6008 12.702 19.7638C12.7401 19.9268 12.8194 20.0774 12.9321 20.2011C13.0449 20.3248 13.1875 20.4176 13.3463 20.4706L22.2066 23.462L17.7343 27.9598L15.9355 27.5812C15.7757 27.5475 15.61 27.5543 15.4535 27.6008C15.2969 27.6474 15.1545 27.7324 15.0391 27.848L12.2655 30.6216C12.1515 30.7353 12.0674 30.8754 12.0204 31.0294C11.9734 31.1834 11.965 31.3466 11.996 31.5046C12.027 31.6626 12.0965 31.8105 12.1982 31.9354C12.2999 32.0602 12.4308 32.158 12.5793 32.2202L17.0909 34.117L18.9897 38.6286C19.052 38.7767 19.1498 38.9073 19.2744 39.0087C19.3991 39.1102 19.5468 39.1795 19.7045 39.2105C19.8622 39.2415 20.0251 39.2332 20.1789 39.1865C20.3326 39.1398 20.4726 39.0559 20.5863 38.9424L23.3639 36.1688C23.4792 36.054 23.5641 35.9123 23.611 35.7565C23.658 35.6007 23.6654 35.4357 23.6326 35.2763L23.2638 33.4952L27.7656 28.9935L30.7805 37.84C30.8345 37.9976 30.9277 38.1389 31.0514 38.2504C31.1751 38.362 31.3252 38.4402 31.4876 38.4777C31.6499 38.5152 31.8191 38.5107 31.9792 38.4647C32.1393 38.4187 32.285 38.3326 32.4027 38.2147L35.1763 35.4411C35.2876 35.3293 35.3704 35.1923 35.4175 35.0417C35.4647 34.8911 35.4748 34.7314 35.447 34.576L33.456 23.305L37.8852 18.8759C37.8858 18.8759 37.8865 18.8759 37.8871 18.8759C38.4362 18.3268 38.8101 17.6273 38.9615 16.8656C39.113 16.104 39.0351 15.3146 38.7377 14.5973C38.4404 13.88 37.9369 13.267 37.2911 12.8358C36.6453 12.4047 35.8841 12.1748 35.1076 12.1753ZM35.1076 14.1368C35.6098 14.1368 36.1041 14.3251 36.4944 14.7155C36.6795 14.896 36.8265 15.1117 36.9268 15.35C37.0271 15.5882 37.0787 15.8442 37.0786 16.1027C37.0784 16.3612 37.0264 16.6171 36.9258 16.8552C36.8251 17.0933 36.6778 17.3088 36.4925 17.4891L31.7063 22.2772C31.5943 22.389 31.511 22.5262 31.4635 22.6772C31.416 22.8282 31.4058 22.9884 31.4337 23.1442L33.4266 34.4152L32.128 35.7137L29.1132 26.8672C29.059 26.71 28.9658 26.5691 28.8422 26.4578C28.7186 26.3466 28.5688 26.2685 28.4068 26.2311C28.2448 26.1936 28.0759 26.1979 27.9161 26.2437C27.7562 26.2894 27.6106 26.3751 27.4929 26.4925L21.4985 32.4831C21.3831 32.5979 21.2982 32.7396 21.2513 32.8954C21.2044 33.0512 21.197 33.2162 21.2297 33.3756L21.5985 35.1527L20.2254 36.5258L18.7405 32.9872C18.6407 32.7505 18.4519 32.5625 18.2148 32.4635L14.6782 30.9766L16.0473 29.6094L17.8441 29.988C18.0041 30.0214 18.1699 30.0144 18.3264 29.9674C18.483 29.9205 18.6253 29.8352 18.7405 29.7193L24.7036 23.7287C24.822 23.6109 24.9082 23.4647 24.9543 23.3041C25.0003 23.1436 25.0045 22.9739 24.9666 22.8112C24.9287 22.6486 24.8499 22.4983 24.7376 22.3746C24.6253 22.2509 24.4833 22.158 24.325 22.1046L15.4707 19.1132L16.7653 17.8186L28.0167 19.8213C28.1723 19.8495 28.3324 19.8395 28.4834 19.7924C28.6343 19.7453 28.7717 19.6623 28.8837 19.5507L33.7208 14.7155C33.9019 14.5317 34.1179 14.3859 34.356 14.2866C34.5941 14.1872 34.8496 14.1363 35.1076 14.1368Z" fill="black"/>
</g>
<defs>
<clipPath id="clip0_747_74">
<rect width="51" height="51" fill="white"/>
</clipPath>
</defs>
</svg>
