<svg width="64" height="64" viewBox="0 0 64 64" fill="none" xmlns="http://www.w3.org/2000/svg">
<path d="M58.824 39C58.1566 38.9998 57.4949 39.1225 56.872 39.362L45.761 43.636C45.4798 42.8642 44.9682 42.1973 44.2955 41.7259C43.6228 41.2544 42.8215 41.001 42 41H37.279C34.5913 41.0043 31.9309 40.4599 29.461 39.4C26.8982 38.3171 24.1133 37.8635 21.3393 38.0771C18.5653 38.2908 15.8828 39.1654 13.516 40.628L11 42.2V40C11 39.7348 10.8946 39.4804 10.7071 39.2929C10.5196 39.1054 10.2652 39 10 39H2C1.73478 39 1.48043 39.1054 1.29289 39.2929C1.10536 39.4804 1 39.7348 1 40V62C1 62.2652 1.10536 62.5196 1.29289 62.7071C1.48043 62.8946 1.73478 63 2 63H10C10.2652 63 10.5196 62.8946 10.7071 62.7071C10.8946 62.5196 11 62.2652 11 62V60.414L13.293 58.12C14.2953 57.1185 15.5695 56.4331 16.9575 56.1487C18.3456 55.8643 19.7866 55.9934 21.102 56.52L26.539 58.694C29.1233 59.7121 31.9039 60.1345 34.674 59.9299C37.444 59.7252 40.1323 58.8988 42.539 57.512L60.928 46.782C61.7209 46.3199 62.3394 45.6094 62.6879 44.7604C63.0363 43.9114 63.0954 42.9712 62.8559 42.0853C62.6164 41.1994 62.0916 40.4171 61.3628 39.8594C60.634 39.3017 59.7417 38.9997 58.824 39ZM9 61H3V41H9V61ZM59.92 45.055L41.532 55.782C39.389 57.0184 36.9947 57.7552 34.5274 57.9375C32.0601 58.1198 29.5834 57.743 27.282 56.835L21.844 54.66C20.1649 53.9891 18.326 53.8253 16.5547 54.189C14.7835 54.5526 13.1579 55.4277 11.879 56.706L11 57.586V44.554L14.576 42.319C16.6689 41.0257 19.0411 40.2523 21.4941 40.0633C23.9471 39.8744 26.4097 40.2755 28.676 41.233C31.3935 42.4015 34.3209 43.0028 37.279 43H42C42.5304 43 43.0391 43.2107 43.4142 43.5858C43.7893 43.9609 44 44.4696 44 45C44 45.5304 43.7893 46.0391 43.4142 46.4142C43.0391 46.7893 42.5304 47 42 47H29V49H42C42.9355 48.9982 43.8409 48.6686 44.5585 48.0684C45.2762 47.4682 45.7608 46.6355 45.928 45.715L57.59 41.229C57.9837 41.0774 58.4021 40.9998 58.824 41C59.3027 40.9986 59.7685 41.1552 60.1492 41.4455C60.5298 41.7358 60.8041 42.1435 60.9294 42.6056C61.0548 43.0676 61.0242 43.558 60.8424 44.0009C60.6606 44.4438 60.3378 44.8143 59.924 45.055H59.92Z" fill="black"/>
<path d="M20.024 32.13L31.553 37.9C31.6918 37.9694 31.8448 38.0055 32 38.0055C32.1552 38.0055 32.3082 37.9694 32.447 37.9L43.976 32.13C47.2967 30.4837 50.0896 27.9399 52.0381 24.787C53.9866 21.6341 55.0127 17.9984 55 14.292C54.996 10.768 53.5943 7.38939 51.1025 4.89752C48.6106 2.40565 45.232 1.00397 41.708 1C39.8023 0.993158 37.9233 1.44882 36.2324 2.32789C34.5415 3.20695 33.0892 4.48316 32 6.047C30.9108 4.48316 29.4585 3.20695 27.7676 2.32789C26.0767 1.44882 24.1977 0.993158 22.292 1C18.768 1.00397 15.3894 2.40565 12.8975 4.89752C10.4056 7.38939 9.00396 10.768 8.99999 14.292C8.98729 17.9984 10.0134 21.6341 11.9619 24.787C13.9104 27.9399 16.7033 30.4837 20.024 32.13ZM22.292 3C24.1232 2.99387 25.9195 3.50093 27.4771 4.46368C29.0348 5.42643 30.2916 6.80636 31.105 8.447C31.1974 8.60198 31.3285 8.7303 31.4853 8.81942C31.6422 8.90854 31.8196 8.95539 32 8.95539C32.1804 8.95539 32.3578 8.90854 32.5147 8.81942C32.6715 8.7303 32.8026 8.60198 32.895 8.447C33.7084 6.80636 34.9652 5.42643 36.5228 4.46368C38.0805 3.50093 39.8768 2.99387 41.708 3C44.7022 3.00212 47.5731 4.19249 49.6903 6.30969C51.8075 8.42689 52.9979 11.2978 53 14.292C53.0112 17.6267 52.0879 20.8978 50.3347 23.7344C48.5816 26.5711 46.0687 28.8598 43.081 30.341L32 35.882L20.919 30.341C17.9313 28.8598 15.4184 26.5711 13.6653 23.7344C11.9121 20.8978 10.9888 17.6267 11 14.292C11.0021 11.2978 12.1925 8.42689 14.3097 6.30969C16.4269 4.19249 19.2978 3.00212 22.292 3Z" fill="black"/>
<path d="M25.689 30.23L31.589 32.91C31.719 32.9691 31.8602 32.9997 32.003 32.9997C32.1458 32.9997 32.287 32.9691 32.417 32.91L38.317 30.23C40.0098 29.4562 41.4451 28.2129 42.4524 26.6477C43.4597 25.0826 43.9968 23.2613 44 21.4C44 19.7026 43.3257 18.0748 42.1255 16.8745C40.9253 15.6743 39.2974 15 37.6 15C36.5526 14.9993 35.516 15.2117 34.5533 15.6243C33.5905 16.0369 32.7218 16.641 32 17.4C31.2782 16.641 30.4095 16.0369 29.4467 15.6243C28.484 15.2117 27.4474 14.9993 26.4 15C24.7026 15 23.0748 15.6743 21.8745 16.8745C20.6743 18.0748 20 19.7026 20 21.4C20.0037 23.2619 20.5417 25.0837 21.5501 26.6489C22.5586 28.2142 23.9951 29.457 25.689 30.23ZM26.4 17C27.3446 16.999 28.2748 17.2317 29.1077 17.6775C29.9405 18.1234 30.65 18.7683 31.173 19.555C31.2697 19.6843 31.3953 19.7894 31.5397 19.8617C31.6842 19.934 31.8435 19.9717 32.005 19.9717C32.1665 19.9717 32.3258 19.934 32.4703 19.8617C32.6147 19.7894 32.7403 19.6843 32.837 19.555C33.359 18.7698 34.067 18.1256 34.8979 17.6799C35.7289 17.2342 36.6571 17.0006 37.6 17C38.767 17 39.8861 17.4636 40.7113 18.2887C41.5364 19.1139 42 20.233 42 21.4C41.9977 22.879 41.5709 24.3263 40.7702 25.5699C39.9694 26.8134 38.8285 27.8009 37.483 28.415L32 30.9L26.517 28.41C25.1722 27.7963 24.0318 26.8095 23.2312 25.567C22.4305 24.3244 22.0032 22.8782 22 21.4C22 20.233 22.4636 19.1139 23.2887 18.2887C24.1139 17.4636 25.233 17 26.4 17Z" fill="black"/>
</svg>
