<svg width="55" height="55" viewBox="0 0 55 55" fill="none" xmlns="http://www.w3.org/2000/svg">
<path d="M50.7402 1.31772H4.25957C2.2268 1.31772 0.572906 2.97161 0.572906 5.00461V39.8605C0.572906 41.8935 2.2268 43.5474 4.2598 43.5474H21.2633C21.6618 46.5221 20.5722 49.5505 18.0211 52.5604H14.0548V53.6823H17.0528H37.5431H40.9449V52.5604H36.5748C34.0237 49.5505 32.9341 46.5221 33.3326 43.5474H50.3818C52.6124 43.5474 54.4271 41.7327 54.4271 39.5022V5.00461C54.4271 2.97161 52.7732 1.31772 50.7402 1.31772ZM35.1267 52.5604H19.4693C20.3939 51.3651 21.0956 50.1628 21.5935 48.9575H27.1003V47.8356H21.9951C22.4274 46.4066 22.5692 44.9751 22.3983 43.5474H32.1976C31.8375 46.5547 32.8206 49.5793 35.1267 52.5604ZM53.3051 39.5022C53.3051 41.1142 51.9939 42.4255 50.3819 42.4255H33.5254H21.0706H4.2598C2.84555 42.4255 1.69485 41.2748 1.69485 39.8605V5.00461C1.69485 3.59036 2.84532 2.43966 4.25951 2.43966H50.7401C52.1544 2.43966 53.3051 3.59036 53.3051 5.00461L53.3051 39.5022Z" fill="black"/>
<path d="M48.517 4.68359H6.48209C5.07964 4.68359 3.93851 5.82473 3.93851 7.22746V29.9691V36.7943H26.847H51.0609V22.7522H49.939V35.6723H47.5548V31.8309C47.5548 29.5689 45.7146 27.7287 43.4526 27.7287H32.4433C30.1814 27.7287 28.3411 29.5688 28.3411 31.8309V35.6723H25.8659L20.8788 29.969H5.06051V7.22746C5.06051 6.44354 5.69816 5.80554 6.48214 5.80554H48.5171C49.301 5.80554 49.939 6.44348 49.939 7.22746V17.4823H51.061V7.22746C51.0609 5.82473 49.9198 4.68359 48.517 4.68359ZM29.4631 31.8309C29.4631 30.1877 30.8001 28.8507 32.4433 28.8507H43.4526C45.0958 28.8507 46.4328 30.1877 46.4328 31.8309V35.5356H42.576V32.579H41.4541V35.5356H34.4418V32.579H33.3199V35.5356H29.4631V31.8309ZM20.3694 31.091L24.3757 35.6723H5.06051V31.091H20.3694ZM27.4997 37.2114C26.4172 37.2114 25.5363 38.0923 25.5363 39.1748C25.5363 40.2574 26.4172 41.1383 27.4997 41.1383C28.5822 41.1383 29.4631 40.2574 29.4631 39.1748C29.4631 38.0923 28.5822 37.2114 27.4997 37.2114ZM27.4997 40.0163C27.0357 40.0163 26.6582 39.6389 26.6582 39.1748C26.6582 38.7108 27.0356 38.3333 27.4997 38.3333C27.9637 38.3333 28.3412 38.7108 28.3412 39.1748C28.3412 39.6389 27.9637 40.0163 27.4997 40.0163Z" fill="black"/>
<path d="M43.8665 16.6039C43.5455 13.5675 41.0011 11.2779 37.948 11.2779C34.8949 11.2779 32.3505 13.5675 32.0295 16.605L31.0894 25.6796H44.8066L43.8665 16.6039ZM32.3335 24.5576L33.1454 16.7216C33.4056 14.2577 35.4704 12.3997 37.948 12.3997C40.4256 12.3997 42.4904 14.2577 42.7506 16.7205L43.5625 24.5576H32.3335Z" fill="black"/>
<path d="M37.8521 14.6451C37.6638 15.5722 37.2313 16.021 37.4911 17.2736C36.3669 16.9795 35.8142 16.283 34.9936 15.4904C34.8144 15.9743 35.5795 17.5625 33.8645 18.521L33.5698 18.6801C33.603 18.9369 33.3231 20.5929 34.5849 22.1553C35.3826 23.1425 36.5664 23.7087 37.8333 23.7087C39.6505 23.7087 41.2899 22.5638 41.913 20.86C42.2865 19.8378 42.3239 19.0604 42.3264 18.2581L41.8969 18.1545C39.4585 17.5667 38.4243 15.5585 37.8521 14.6451ZM40.8592 20.4748C40.3899 21.7576 39.2022 22.5867 37.8332 22.5867C36.8934 22.5867 36.0497 22.183 35.4575 21.4502C35.0017 20.886 34.7475 20.1686 34.6999 19.315C35.059 19.0592 35.6433 18.5533 35.9405 17.8107C36.4782 18.1396 37.2627 18.4867 38.1778 18.4867L39.1335 18.4566L38.8144 17.7436C39.3998 18.2599 40.1876 18.7935 41.1742 19.1151C41.1364 19.4498 41.0512 19.9492 40.8592 20.4748ZM16.4776 7.87744C11.4383 7.87744 7.33865 11.9772 7.33865 17.0167C7.33865 22.0559 11.4384 26.1556 16.4776 26.1556C21.5171 26.1556 25.6168 22.0559 25.6168 17.0167C25.6168 11.9772 21.5171 7.87744 16.4776 7.87744ZM24.4665 16.4576H21.2802C21.1912 13.546 20.4185 11.0421 19.2495 9.50367C22.1388 10.5734 24.2441 13.2566 24.4665 16.4576ZM15.9193 9.1056V16.4576H12.796C12.9202 12.7671 14.2544 9.68184 15.9193 9.1056ZM15.9193 17.5796V24.9275C14.255 24.3515 12.921 21.2684 12.796 17.5796H15.9193ZM17.0413 24.9256V17.5796H20.1592C20.0343 21.2644 18.7032 24.3447 17.0413 24.9256ZM17.0413 16.4576V9.10749C18.7038 9.68866 20.0352 12.7711 20.1592 16.4576H17.0413ZM13.7056 9.50372C12.5367 11.0421 11.7639 13.546 11.6749 16.4576H8.4889C8.71136 13.2566 10.8165 10.5735 13.7056 9.50372ZM8.48913 17.5796H11.675C11.7645 20.4894 12.5371 22.9917 13.7055 24.5293C10.8177 23.4599 8.71297 20.7786 8.48913 17.5796ZM19.2496 24.5294C20.4181 22.9917 21.1906 20.4895 21.2802 17.5796H24.4663C24.2424 20.7787 22.1377 23.46 19.2496 24.5294Z" fill="black"/>
<path d="M29.9922 47.8357H28.4184V48.9575H29.9922V47.8357Z" fill="black"/>
<path d="M49.5418 44.9224H40.9452V46.0442H49.5418V44.9224Z" fill="black"/>
<path d="M39.5106 44.9224H37.7902V46.0442H39.5106V44.9224Z" fill="black"/>
<path d="M29.1036 7.68047L29.1071 8.85953L30.2288 8.8562L30.2253 7.67714L29.1036 7.68047Z" fill="black"/>
<path d="M30.2373 11.439L30.234 10.2599L29.1123 10.2631L29.1155 11.4421L30.2373 11.439Z" fill="black"/>
<path d="M27.7893 10.124H28.9684V9.00225H27.7893V10.124Z" fill="black"/>
<path d="M30.371 8.99649L30.3742 10.1183L31.5533 10.1148L31.55 8.99307L30.371 8.99649Z" fill="black"/>
<path d="M45.7233 8.96322L45.7268 10.148L46.8486 10.1447L46.8451 8.95989L45.7233 8.96322Z" fill="black"/>
<path d="M46.8555 12.7377L46.8519 11.5535L45.7302 11.5568L45.7337 12.741L46.8555 12.7377Z" fill="black"/>
<path d="M45.552 10.4282H44.3672V11.55H45.552V10.4282Z" fill="black"/>
<path d="M46.9946 11.4073H48.1789V10.2856H46.9946V11.4073Z" fill="black"/>
<path d="M26.0794 26.4402L26.0755 25.1173L24.9538 25.1206L24.9576 26.4435L26.0794 26.4402Z" fill="black"/>
<path d="M26.0875 29.3379L26.0834 28.0145L24.9616 28.018L24.9658 29.3414L26.0875 29.3379Z" fill="black"/>
<path d="M23.4105 27.7939H24.734V26.6721H23.4105V27.7939Z" fill="black"/>
<path d="M26.3089 27.7865H27.6318V26.6647H26.3089V27.7865Z" fill="black"/>
<path d="M8.70466 32.3716H9.2306V34.7289H8.70466L7.58215 33.2519V34.7289H7.05569V32.3716H7.54817L8.70466 33.8891V32.3716ZM12.1845 32.3716V32.8405H11.0116V33.3259H12.0667V33.7745H11.0116V34.2632H12.2217V34.7288H10.4851V32.3715L12.1845 32.3716ZM14.0997 33.7275L14.5177 32.3716H15.0677L15.4824 33.7275L15.9509 32.3716H16.5206L15.6983 34.729H15.3072L14.7911 33.0898L14.2783 34.729H13.8872L13.0649 32.3716H13.6347L14.0997 33.7275ZM17.9335 33.0076C17.9335 33.2024 18.1946 33.2501 18.4545 33.3144C19.0176 33.4524 19.1612 33.7153 19.1612 34.0441C19.1612 34.5033 18.7724 34.7558 18.2978 34.7558C17.9247 34.7558 17.5884 34.6177 17.2898 34.341L17.6032 33.9564C17.8574 34.1788 18.0918 34.2906 18.3077 34.2906C18.4716 34.2906 18.6184 34.2219 18.6184 34.0594C18.6184 33.8677 18.3976 33.817 18.1834 33.7642C17.6901 33.647 17.3907 33.4996 17.3907 33.0175C17.3907 32.3834 18.0973 32.1897 18.7061 32.399C18.8633 32.4526 19.0003 32.5294 19.1175 32.628L18.8507 33.0125C18.5161 32.7588 17.9335 32.652 17.9335 33.0076Z" fill="black"/>
</svg>
